<svg id="Line" xmlns="http://www.w3.org/2000/svg" width="64" height="64" viewBox="0 0 64 64"><title>ink</title><path d="M27.721,39.777,25.8,37.857a1,1,0,1,0-1.41,1.41l1,1c-3.52,2.681-9.491,2.721-9.561,2.721a.988.988,0,0,0-.941,1.31c2.571,7.731-1.72,15.642-1.76,15.721a.99.99,0,0,0,1.35,1.351c.08-.04,7.992-4.331,15.723-1.761a1,1,0,0,0,1.32-.94c0-.07.03-6.03,2.711-9.551l1,1a1,1,0,1,0,1.42-1.421C23.042,35.1,28.736,40.792,27.721,39.777ZM24.34,54.329a2.949,2.949,0,1,1,0-4.171A2.958,2.958,0,0,1,24.34,54.329Z" style="fill:#c4a2fc"/><path d="M60.592,13.916A8.2,8.2,0,0,0,50.85,12.51,58.2,58.2,0,0,0,27.477,36.7L37.8,47.024a58.045,58.045,0,0,0,14.531-10.59,58.357,58.357,0,0,0,9.633-12.717A8.223,8.223,0,0,0,60.592,13.916ZM35.814,34.6A1,1,0,0,1,34.4,33.185l14.685-14.68A1,1,0,0,1,50.5,19.919Zm20.191-9.175L41.32,40.1a1,1,0,0,1-1.414-1.414L54.59,24.01a1,1,0,0,1,1.415,1.414Z" style="fill:#c4a2fc"/><path d="M19.591,34.5h-.739v-3a3,3,0,0,0-2.013-2.816V27.5a3.013,3.013,0,0,0-3.02-3H9.792a3.013,3.013,0,0,0-3.02,3v1.184A3,3,0,0,0,4.759,31.5v3H4.02a3.007,3.007,0,0,0-3,3.372l1.51,12a3.017,3.017,0,0,0,3,2.628H18.081a3.017,3.017,0,0,0,3-2.628l1.51-12A3.007,3.007,0,0,0,19.591,34.5Zm-10.805-7a1,1,0,0,1,1.006-1h4.027a1,1,0,0,1,1.006,1v1H8.786Zm-2.014,4a1,1,0,0,1,1.007-1h8.053a1,1,0,0,1,1.007,1v3H6.772ZM19.08,49.623a1.006,1.006,0,0,1-1,.876H5.53a1.006,1.006,0,0,1-1-.876l-1.51-12a1,1,0,0,1,1-1.124H19.591a1,1,0,0,1,1,1.124Z" style="fill:#151a6a"/><path d="M49.494,3.335a1.028,1.028,0,0,0-1.941-.241c-1.936,4.262-5.8,7.1-9.895,10.106-4.124,3.026-8.387,6.155-10.538,10.893-4.29,9.447,3.873,19.6,4.223,20.03.02.025.051.035.073.057a52.883,52.883,0,0,0-.3,7.366,1.022,1.022,0,0,0,2.041-.095,53.408,53.408,0,0,1,.377-7.542C54.308,33.262,49.546,3.638,49.494,3.335ZM28.987,24.906c1.936-4.262,5.8-7.1,9.9-10.107,3.258-2.391,6.6-4.847,8.926-8.111.559,7.389.457,26.351-13.943,34.774,1.08-7.028,3.744-16.371,10.263-23.284a.985.985,0,0,0-.057-1.413,1.039,1.039,0,0,0-1.444.056C35.669,24.2,32.883,33.95,31.786,41.245,29.782,38.161,26.128,31.2,28.987,24.906Z" style="fill:#151a6a"/></svg>